<?xml version='1.0' encoding='utf-8'?>
<svg xmlns="http://www.w3.org/2000/svg" width="1536" height="969" viewBox="0 0 1536 969">
  <defs>
    <linearGradient id="fusion-gradient" x1="0%" y1="0%" x2="100%" y2="0%">
      <stop offset="0%" stop-color="#FFC2DD" />
      <stop offset="50%" stop-color="#FFF9FC" />
      <stop offset="100%" stop-color="#8DD3FF" />
    </linearGradient>
  </defs>
  <title>八達通 Octopus reusable foreground mark · background palette fusion</title>
  <desc>Screenshot-derived vector marks; transparent card canvas. Background art and Wallet UI omitted.</desc>
  <g id="octopus-name">
    <path id="octopus-wordmark" fill="url(#fusion-gradient)" fill-rule="evenodd" d="M316.77,119.45 L319.64,122.32 L323.47,123.28 L324.43,125.19 L337.82,125.19 L343.57,122.32 L348.35,116.59 L350.27,112.76 L350.27,108.94 L351.22,108.94 L351.22,102.25 L352.18,102.25 L351.22,94.61 L350.27,94.61 L349.31,88.87 L347.39,87.92 L345.48,83.14 L343.57,83.14 L341.65,80.27 L337.82,78.36 L325.38,78.36 L316.77,84.09 L315.81,87.92 L312.94,90.78 L312.94,95.56 L311.99,95.56 L311.99,107.99 L312.94,107.99 L312.94,112.76 L315.81,115.63 Z M379.93,94.61 L375.15,98.43 L373.23,102.25 L373.23,107.03 L372.28,107.03 L373.23,118.50 L378.02,124.23 L389.50,125.19 L390.46,123.28 L393.33,122.32 L397.16,114.67 L402.90,115.63 L402.90,121.36 L400.99,125.19 L392.37,131.88 L387.59,131.88 L387.59,132.83 L376.10,131.88 L367.49,125.19 L364.62,119.45 L364.62,115.63 L363.66,115.63 L364.62,101.30 L365.58,101.30 L366.53,96.52 L369.41,94.61 L369.41,92.70 L373.23,90.78 L374.19,88.87 L381.85,87.92 L381.85,86.96 L395.24,88.87 L401.94,94.61 L402.90,102.25 L400.99,103.21 L395.24,102.25 L393.33,97.47 L389.50,94.61 Z M239.25,102.25 L238.30,103.21 L239.25,106.07 L245.95,106.07 L244.99,102.25 Z M342.61,71.67 L354.09,80.27 L354.09,82.18 L356.01,83.14 L358.88,88.87 L359.84,98.43 L360.79,98.43 L358.88,114.67 L355.05,122.32 L350.27,127.10 L348.35,127.10 L342.61,131.88 L336.87,131.88 L336.87,132.83 L320.60,131.88 L309.11,123.28 L309.11,121.36 L307.20,120.41 L304.33,114.67 L304.33,111.81 L303.37,111.81 L304.33,88.87 L307.20,83.14 L309.11,82.18 L309.11,80.27 L320.60,71.67 L325.38,71.67 L325.38,70.72 Z M463.19,117.54 L465.11,114.67 L465.11,106.07 L464.15,106.07 L463.19,100.34 L456.49,94.61 L445.97,95.56 L442.14,99.38 L440.22,103.21 L440.22,107.03 L439.27,107.03 L439.27,113.72 L440.22,113.72 L440.22,116.59 L443.10,122.32 L445.01,122.32 L447.88,125.19 L456.49,125.19 L461.28,122.32 Z M556.02,89.83 L557.94,87.92 L562.72,88.87 L562.72,130.92 L556.98,131.88 L555.07,129.01 L552.19,129.01 L549.32,131.88 L544.54,131.88 L544.54,132.83 L534.01,131.88 L528.27,127.10 L527.31,121.36 L526.36,121.36 L526.36,89.83 L529.23,87.92 L532.10,87.92 L534.97,90.78 L534.01,92.70 L534.01,99.38 L534.97,99.38 L534.01,113.72 L534.97,113.72 L534.97,121.36 L538.80,125.19 L548.37,125.19 L554.11,119.45 L555.07,89.83 Z M442.14,129.96 L439.27,129.01 L433.53,123.28 L433.53,120.41 L430.65,114.67 L430.65,104.16 L432.57,102.25 L434.48,95.56 L440.22,89.83 L445.01,88.87 L445.01,87.92 L449.79,87.92 L449.79,86.96 L455.54,86.96 L455.54,87.92 L464.15,89.83 L470.85,96.52 L472.76,100.34 L472.76,104.16 L473.72,104.16 L473.72,116.59 L472.76,116.59 L470.85,123.28 L467.98,125.19 L467.02,128.05 L465.11,128.05 L461.28,131.88 L449.79,132.83 L449.79,131.88 L444.05,131.88 Z M265.09,73.58 L267.96,75.49 L267.01,79.32 L263.18,81.23 L262.22,83.14 L257.44,84.09 L257.44,86.01 L266.05,86.96 L267.96,90.78 L267.96,94.61 L267.01,94.61 L267.96,119.45 L267.01,119.45 L267.01,122.32 L262.22,123.28 L260.31,119.45 L261.26,113.72 L259.35,111.81 L253.61,111.81 L252.65,112.76 L252.65,122.32 L247.87,123.28 L245.95,120.41 L245.95,112.76 L239.25,111.81 L238.30,120.41 L235.42,123.28 L235.42,125.19 L271.79,125.19 L272.75,129.01 L269.88,131.88 L239.25,131.88 L239.25,130.92 L227.77,129.01 L226.81,127.10 L222.03,126.14 L217.24,131.88 L214.37,131.88 L212.46,129.96 L212.46,127.10 L221.07,118.50 L221.07,104.16 L219.16,102.25 L212.46,102.25 L211.50,100.34 L212.46,96.52 L225.85,96.52 L226.81,97.47 L226.81,120.41 L227.77,122.32 L232.55,122.32 L231.60,120.41 L231.60,88.87 L232.55,86.96 L238.30,86.01 L238.30,79.32 L230.64,78.36 L229.68,74.54 L232.55,74.54 L232.55,73.58 Z M155.99,121.36 L163.65,125.19 L175.13,125.19 L174.18,119.45 L158.86,119.45 L155.99,116.59 Z M581.86,103.21 L586.65,106.07 L595.26,107.03 L599.09,108.94 L600.04,110.85 L601.96,110.85 L602.92,113.72 L604.83,114.67 L604.83,123.28 L599.09,129.96 L595.26,131.88 L582.82,132.83 L582.82,131.88 L577.08,131.88 L569.42,125.19 L568.46,123.28 L569.42,117.54 L576.12,118.50 L577.08,122.32 L579.95,123.28 L580.90,125.19 L592.39,125.19 L596.22,121.36 L596.22,118.50 L594.30,115.63 L589.52,114.67 L587.60,112.76 L578.99,111.81 L578.03,109.90 L573.25,108.94 L569.42,104.16 L568.46,98.43 L569.42,98.43 L571.33,91.74 L573.25,91.74 L575.16,88.87 L582.82,87.92 L582.82,86.96 L596.22,88.87 L601.96,94.61 L602.92,99.38 L601.00,101.30 L594.30,100.34 L594.30,98.43 L589.52,94.61 L580.90,94.61 L577.08,99.38 L579.95,103.21 Z M420.13,82.18 L419.17,82.18 L420.13,87.92 L424.91,87.92 L424.91,88.87 L427.78,88.87 L428.74,90.78 L427.78,94.61 L420.13,95.56 L420.13,99.38 L419.17,99.38 L419.17,105.12 L420.13,105.12 L419.17,121.36 L422.04,125.19 L426.83,125.19 L428.74,127.10 L426.83,131.88 L417.26,131.88 L412.47,128.05 L411.51,126.14 L411.51,96.52 L404.81,94.61 L404.81,88.87 L411.51,86.96 L411.51,77.41 L413.43,75.49 L418.21,75.49 L420.13,78.36 Z M198.10,85.05 L199.06,89.83 L191.40,90.78 L188.53,93.65 L189.49,96.52 L195.23,96.52 L197.14,98.43 L196.19,101.30 L182.79,103.21 L182.79,105.12 L193.32,105.12 L195.23,108.94 L193.32,110.85 L183.75,110.85 L182.79,112.76 L183.75,113.72 L200.01,113.72 L200.97,117.54 L199.06,119.45 L182.79,119.45 L181.83,125.19 L200.97,125.19 L201.93,128.05 L200.01,130.92 L198.10,131.88 L168.43,131.88 L168.43,130.92 L156.95,129.01 L153.12,126.14 L149.29,127.10 L149.29,129.01 L147.38,129.01 L146.42,131.88 L141.64,130.92 L141.64,126.14 L143.55,126.14 L149.29,119.45 L149.29,103.21 L141.64,102.25 L139.72,100.34 L140.68,96.52 L154.08,96.52 L155.04,97.47 L155.99,115.63 L157.91,113.72 L174.18,113.72 L173.22,110.85 L164.61,110.85 L162.69,108.94 L163.65,105.12 L174.18,105.12 L174.18,102.25 L161.73,102.25 L159.82,100.34 L159.82,97.47 L166.52,96.52 L167.48,92.70 L165.56,90.78 L157.91,89.83 L158.86,85.05 L174.18,85.05 L174.18,83.14 L173.22,82.18 L169.39,82.18 L169.39,83.14 L161.73,82.18 L159.82,79.32 L161.73,76.45 L174.18,76.45 L176.09,71.67 L179.92,70.72 L182.79,76.45 L195.23,76.45 L196.19,77.41 L195.23,82.18 L193.32,83.14 L184.70,82.18 L182.79,83.14 L182.79,85.05 Z M85.17,73.58 L86.13,72.63 L116.76,72.63 L117.71,73.58 L118.67,87.92 L120.58,91.74 L121.54,100.34 L123.45,102.25 L123.45,107.03 L126.33,111.81 L126.33,115.63 L129.20,119.45 L130.15,124.23 L133.02,127.10 L131.11,131.88 L126.33,130.92 L120.58,119.45 L119.63,113.72 L117.71,111.81 L116.76,104.16 L114.84,102.25 L111.01,79.32 L87.09,79.32 L85.17,77.41 Z M260.31,92.70 L253.61,91.74 L252.65,94.61 L253.61,96.52 L259.35,96.52 Z M76.56,115.63 L77.52,109.90 L80.39,105.12 L80.39,100.34 L81.35,100.34 L81.35,95.56 L82.30,95.56 L82.30,86.96 L83.26,85.05 L88.04,85.05 L89.00,86.01 L89.00,99.38 L87.09,102.25 L86.13,109.90 L84.22,111.81 L81.35,122.32 L75.60,131.88 L71.78,131.88 L69.86,127.10 L72.73,124.23 L74.65,117.54 Z M517.74,97.47 L519.66,99.38 L520.61,107.99 L521.57,107.99 L520.61,117.54 L519.66,117.54 L519.66,121.36 L517.74,122.32 L517.74,124.23 L509.13,131.88 L504.34,131.88 L504.34,132.83 L492.86,131.88 L490.95,129.01 L488.07,129.01 L488.07,145.25 L486.16,148.12 L480.42,148.12 L479.46,147.17 L479.46,88.87 L484.25,87.92 L489.99,90.78 L490.95,88.87 L493.82,88.87 L493.82,87.92 L503.39,86.96 L503.39,87.92 L512.00,89.83 L517.74,95.56 Z M147.38,74.54 L154.08,81.23 L154.08,84.09 L152.16,86.01 L149.29,86.01 L142.59,79.32 L142.59,75.49 Z M511.04,115.63 L512.96,112.76 L512.96,107.99 L512.00,107.99 L510.09,99.38 L504.34,94.61 L492.86,95.56 L488.07,102.25 L488.07,107.99 L487.12,107.99 L488.07,117.54 L490.95,120.41 L490.95,122.32 L498.60,126.14 L505.30,125.19 L511.04,119.45 Z M175.13,90.78 L174.18,93.65 L177.05,96.52 L181.83,94.61 L181.83,90.78 Z M260.31,106.07 L260.31,102.25 L252.65,103.21 L253.61,106.07 Z M244.99,96.52 L245.95,92.70 L244.04,91.74 L238.30,92.70 L239.25,96.52 Z M221.07,86.01 L214.37,80.27 L215.33,74.54 L218.20,74.54 L219.16,76.45 L221.07,76.45 L222.03,79.32 L224.90,80.27 L224.90,85.05 Z M251.69,82.18 L251.69,79.32 L245.95,79.32 L245.95,82.18 Z" />
  </g>
</svg>